# Wavefront Obj file
# 
# verts: 80 uv-s: 136
mtllib TableStand.mtl

g Cylinder
#pivot 0.000000 0.000000 0.000000

v 4.496327 0.000000 -7.809054
v 4.496327 0.042064 -7.809054
v 3.979987 0.123784 -7.809054
v 4.467063 0.000000 -7.624288
v 4.467063 0.042064 -7.624288
v 3.975995 0.123784 -7.783846
v 4.382135 0.000000 -7.457607
v 4.382135 0.042064 -7.457607
v 3.964407 0.123784 -7.761106
v 4.249857 0.000000 -7.325329
v 4.249857 0.042064 -7.325329
v 3.946359 0.123784 -7.743057
v 4.083177 0.000000 -7.240401
v 4.083177 0.042064 -7.240401
v 3.923619 0.123784 -7.731471
v 3.898410 0.000000 -7.211137
v 3.898410 0.042064 -7.211137
v 3.898410 0.123784 -7.727479
v 3.713644 0.000000 -7.240401
v 3.713644 0.042064 -7.240401
v 3.873201 0.123784 -7.731471
v 3.546963 0.000000 -7.325329
v 3.546963 0.042064 -7.325329
v 3.850461 0.123784 -7.743057
v 3.414685 0.000000 -7.457607
v 3.414685 0.042064 -7.457607
v 3.832413 0.123784 -7.761106
v 3.329757 0.000000 -7.624288
v 3.329757 0.042064 -7.624288
v 3.820827 0.123784 -7.783846
v 3.300493 0.000000 -7.809054
v 3.300493 0.042064 -7.809054
v 3.816833 0.123784 -7.809054
v 3.329757 0.000000 -7.993821
v 3.329757 0.042064 -7.993821
v 3.820827 0.123784 -7.834263
v 3.414685 0.000000 -8.160501
v 3.414685 0.042064 -8.160501
v 3.832413 0.123784 -7.857004
v 3.546963 0.000000 -8.292779
v 3.546963 0.042064 -8.292779
v 3.850461 0.123784 -7.875051
v 3.713644 0.000000 -8.377707
v 3.713644 0.042064 -8.377707
v 3.873201 0.123784 -7.886638
v 3.898410 0.000000 -8.406972
v 3.898410 0.042064 -8.406972
v 3.898410 0.123784 -7.890632
v 4.083177 0.000000 -8.377707
v 4.083177 0.042064 -8.377707
v 3.923619 0.123784 -7.886638
v 4.249857 0.000000 -8.292779
v 4.249857 0.042064 -8.292779
v 3.946359 0.123784 -7.875051
v 4.382135 0.000000 -8.160501
v 4.382135 0.042064 -8.160501
v 3.964407 0.123784 -7.857004
v 4.467063 0.000000 -7.993821
v 4.467063 0.042064 -7.993821
v 3.975995 0.123784 -7.834263
v 3.979987 0.818403 -7.809054
v 3.975995 0.818403 -7.783846
v 3.964407 0.818403 -7.761106
v 3.946359 0.818403 -7.743057
v 3.923619 0.818403 -7.731471
v 3.898410 0.818403 -7.727479
v 3.873201 0.818403 -7.731471
v 3.850461 0.818403 -7.743057
v 3.832413 0.818403 -7.761106
v 3.820827 0.818403 -7.783846
v 3.816833 0.818403 -7.809054
v 3.820827 0.818403 -7.834263
v 3.832413 0.818403 -7.857004
v 3.850461 0.818403 -7.875051
v 3.873201 0.818403 -7.886638
v 3.898410 0.818403 -7.890632
v 3.923619 0.818403 -7.886638
v 3.946359 0.818403 -7.875051
v 3.964407 0.818403 -7.857004
v 3.975995 0.818403 -7.834263
# 80 positions

vt 0.906889 0.402828
vt 0.906889 0.292871
vt 0.931922 0.292871
vt 0.931922 0.402828
vt 0.470786 0.699241
vt 0.360829 0.716657
vt 0.360829 0.409376
vt 0.375831 0.407000
vt 0.944458 0.710251
vt 0.995000 0.710251
vt 0.995000 0.735284
vt 0.944458 0.735284
vt 0.569979 0.648700
vt 0.389363 0.400104
vt 0.865738 0.710251
vt 0.865738 0.735284
vt 0.648700 0.569979
vt 0.400104 0.389363
vt 0.766545 0.710251
vt 0.766545 0.735284
vt 0.699242 0.470786
vt 0.407000 0.375831
vt 0.656587 0.710251
vt 0.656587 0.735284
vt 0.716657 0.360828
vt 0.409375 0.360828
vt 0.546631 0.710251
vt 0.546631 0.735284
vt 0.699242 0.250872
vt 0.407000 0.345826
vt 0.447436 0.710251
vt 0.447436 0.735284
vt 0.648700 0.151678
vt 0.400104 0.332293
vt 0.748519 0.083721
vt 0.748519 0.005000
vt 0.723486 0.005000
vt 0.723486 0.083721
vt 0.569979 0.072957
vt 0.389363 0.321553
vt 0.748519 0.182915
vt 0.723486 0.182915
vt 0.470786 0.022415
vt 0.375831 0.314658
vt 0.748519 0.292871
vt 0.723486 0.292871
vt 0.360829 0.005000
vt 0.360829 0.312281
vt 0.748519 0.402829
vt 0.723486 0.402829
vt 0.250872 0.022415
vt 0.345826 0.314658
vt 0.748519 0.502022
vt 0.723486 0.502022
vt 0.151678 0.072957
vt 0.332293 0.321553
vt 0.748519 0.580742
vt 0.723486 0.580742
vt 0.072958 0.151678
vt 0.321553 0.332293
vt 0.324107 0.748519
vt 0.423302 0.748519
vt 0.423302 0.723486
vt 0.324107 0.723486
vt 0.022416 0.250872
vt 0.314658 0.345826
vt 0.214151 0.748519
vt 0.214151 0.723486
vt 0.005000 0.360828
vt 0.312281 0.360828
vt 0.104193 0.748519
vt 0.104193 0.723486
vt 0.022416 0.470786
vt 0.314658 0.375831
vt 0.005000 0.748519
vt 0.005000 0.723486
vt 0.072958 0.569979
vt 0.321553 0.389363
vt 0.906889 0.083721
vt 0.906889 0.005000
vt 0.931922 0.005000
vt 0.931922 0.083721
vt 0.151678 0.648700
vt 0.332293 0.400104
vt 0.906889 0.182914
vt 0.931922 0.182914
vt 0.250872 0.699241
vt 0.345826 0.407000
vt 0.843797 0.770929
vt 0.843797 0.785931
vt 0.430420 0.785931
vt 0.430420 0.770929
vt 0.843797 0.799464
vt 0.430420 0.799464
vt 0.843797 0.810205
vt 0.430420 0.810205
vt 0.899674 0.418377
vt 0.886141 0.418377
vt 0.886141 0.005000
vt 0.899674 0.005000
vt 0.871139 0.418377
vt 0.871139 0.005000
vt 0.856137 0.418377
vt 0.856137 0.005000
vt 0.842604 0.418377
vt 0.842604 0.005000
vt 0.005000 0.755629
vt 0.005000 0.766370
vt 0.418377 0.766370
vt 0.418377 0.755629
vt 0.005000 0.779903
vt 0.418377 0.779903
vt 0.005000 0.794905
vt 0.418377 0.794905
vt 0.005000 0.809907
vt 0.418377 0.809907
vt 0.005000 0.823440
vt 0.418377 0.823440
vt 0.834181 0.005000
vt 0.823440 0.005000
vt 0.823440 0.418377
vt 0.834181 0.418377
vt 0.809907 0.005000
vt 0.809907 0.418377
vt 0.794905 0.005000
vt 0.794905 0.418377
vt 0.779903 0.005000
vt 0.779903 0.418377
vt 0.766370 0.005000
vt 0.766370 0.418377
vt 0.755629 0.005000
vt 0.755629 0.418377
vt 0.843797 0.742394
vt 0.843797 0.755927
vt 0.430420 0.755927
vt 0.430420 0.742394
# 136 texture coordinates

vn 1.000000 0.000000 0.000001
vn 0.757008 0.653406 0.000000
vn 0.757008 0.653405 0.000003
vn 0.951057 0.000000 0.309016
vn 0.719957 0.653406 0.233927
vn 0.719952 0.653407 0.233939
vn 0.809018 0.000000 0.587784
vn 0.612432 0.653406 0.444957
vn 0.612428 0.653404 0.444966
vn 0.587786 0.000000 0.809016
vn 0.444958 0.653406 0.612432
vn 0.444959 0.653407 0.612430
vn 0.309017 0.000000 0.951056
vn 0.233928 0.653406 0.719957
vn 0.233916 0.653407 0.719960
vn -0.000000 0.000000 1.000000
vn -0.000000 0.653406 0.757007
vn -0.000000 0.653405 0.757009
vn -0.309016 0.000000 0.951057
vn -0.233927 0.653406 0.719957
vn -0.233915 0.653406 0.719961
vn -0.587786 0.000000 0.809017
vn -0.444958 0.653406 0.612431
vn -0.444958 0.653407 0.612431
vn -0.809017 0.000000 0.587784
vn -0.612433 0.653406 0.444957
vn -0.612440 0.653406 0.444947
vn -0.951056 0.000000 0.309017
vn -0.719957 0.653406 0.233929
vn -0.719954 0.653404 0.233943
vn -1.000000 0.000000 0.000001
vn -0.757007 0.653406 0.000000
vn -0.757005 0.653409 0.000003
vn -0.951056 0.000000 -0.309018
vn -0.719957 0.653406 -0.233929
vn -0.719956 0.653404 -0.233937
vn -0.809017 0.000000 -0.587786
vn -0.612432 0.653406 -0.444958
vn -0.612430 0.653408 -0.444958
vn -0.587787 0.000000 -0.809016
vn -0.444959 0.653406 -0.612431
vn -0.444959 0.653404 -0.612433
vn -0.309019 0.000000 -0.951056
vn -0.233930 0.653406 -0.719956
vn -0.233955 0.653406 -0.719949
vn -0.000000 0.000000 -1.000000
vn -0.000000 0.653406 -0.757008
vn -0.000000 0.653409 -0.757005
vn 0.309020 0.000000 -0.951056
vn 0.233931 0.653406 -0.719956
vn 0.233956 0.653406 -0.719948
vn 0.587787 0.000000 -0.809016
vn 0.444959 0.653406 -0.612431
vn 0.444960 0.653404 -0.612432
vn 0.809017 0.000000 -0.587786
vn 0.612432 0.653406 -0.444958
vn 0.612418 0.653406 -0.444977
vn 0.951057 0.000000 -0.309017
vn 0.719957 0.653406 -0.233928
vn 0.719954 0.653407 -0.233934
vn 1.000000 0.000000 0.000004
vn 0.951051 0.000000 0.309034
vn 0.809009 0.000000 0.587796
vn 0.587788 0.000000 0.809015
vn 0.309000 0.000000 0.951062
vn 0.000000 0.000000 1.000000
vn -0.308997 0.000000 0.951063
vn -0.587786 0.000000 0.809016
vn -0.809029 0.000000 0.587769
vn -0.951050 0.000000 0.309038
vn -1.000000 0.000000 0.000004
vn -0.951052 0.000000 -0.309030
vn -0.809016 0.000000 -0.587787
vn -0.587785 0.000000 -0.809017
vn -0.309056 0.000000 -0.951044
vn 0.000000 0.000000 -1.000000
vn 0.309058 0.000000 -0.951043
vn 0.587787 0.000000 -0.809016
vn 0.808996 0.000000 -0.587814
vn 0.951054 0.000000 -0.309026
# 80 normals

usemtl Stool
f 4/1/4 1/2/1 2/3/2 5/4/5
f 5/5/5 2/6/2 3/7/3 6/8/6
f 7/9/7 4/10/4 5/11/5 8/12/8
f 8/13/8 5/5/5 6/8/6 9/14/9
f 10/15/10 7/9/7 8/12/8 11/16/11
f 11/17/11 8/13/8 9/14/9 12/18/12
f 13/19/13 10/15/10 11/16/11 14/20/14
f 14/21/14 11/17/11 12/18/12 15/22/15
f 16/23/16 13/19/13 14/20/14 17/24/17
f 17/25/17 14/21/14 15/22/15 18/26/18
f 19/27/19 16/23/16 17/24/17 20/28/20
f 20/29/20 17/25/17 18/26/18 21/30/21
f 22/31/22 19/27/19 20/28/20 23/32/23
f 23/33/23 20/29/20 21/30/21 24/34/24
f 25/35/25 22/36/22 23/37/23 26/38/26
f 26/39/26 23/33/23 24/34/24 27/40/27
f 28/41/28 25/35/25 26/38/26 29/42/29
f 29/43/29 26/39/26 27/40/27 30/44/30
f 31/45/31 28/41/28 29/42/29 32/46/32
f 32/47/32 29/43/29 30/44/30 33/48/33
f 34/49/34 31/45/31 32/46/32 35/50/35
f 35/51/35 32/47/32 33/48/33 36/52/36
f 37/53/37 34/49/34 35/50/35 38/54/38
f 38/55/38 35/51/35 36/52/36 39/56/39
f 40/57/40 37/53/37 38/54/38 41/58/41
f 41/59/41 38/55/38 39/56/39 42/60/42
f 43/61/43 40/62/40 41/63/41 44/64/44
f 44/65/44 41/59/41 42/60/42 45/66/45
f 46/67/46 43/61/43 44/64/44 47/68/47
f 47/69/47 44/65/44 45/66/45 48/70/48
f 49/71/49 46/67/46 47/68/47 50/72/50
f 50/73/50 47/69/47 48/70/48 51/74/51
f 52/75/52 49/71/49 50/72/50 53/76/53
f 53/77/53 50/73/50 51/74/51 54/78/54
f 55/79/55 52/80/52 53/81/53 56/82/56
f 56/83/56 53/77/53 54/78/54 57/84/57
f 58/85/58 55/79/55 56/82/56 59/86/59
f 59/87/59 56/83/56 57/84/57 60/88/60
f 1/2/1 58/85/58 59/86/59 2/3/2
f 2/6/2 59/87/59 60/88/60 3/7/3
f 61/89/61 62/90/62 6/91/6 3/92/3
f 62/90/62 63/93/63 9/94/9 6/91/6
f 63/93/63 64/95/64 12/96/12 9/94/9
f 64/97/64 65/98/65 15/99/15 12/100/12
f 65/98/65 66/101/66 18/102/18 15/99/15
f 66/101/66 67/103/67 21/104/21 18/102/18
f 67/103/67 68/105/68 24/106/24 21/104/21
f 68/107/68 69/108/69 27/109/27 24/110/24
f 69/108/69 70/111/70 30/112/30 27/109/27
f 70/111/70 71/113/71 33/114/33 30/112/30
f 71/113/71 72/115/72 36/116/36 33/114/33
f 72/115/72 73/117/73 39/118/39 36/116/36
f 73/119/73 74/120/74 42/121/42 39/122/39
f 74/120/74 75/123/75 45/124/45 42/121/42
f 75/123/75 76/125/76 48/126/48 45/124/45
f 76/125/76 77/127/77 51/128/51 48/126/48
f 77/127/77 78/129/78 54/130/54 51/128/51
f 78/129/78 79/131/79 57/132/57 54/130/54
f 79/133/79 80/134/80 60/135/60 57/136/57
f 80/134/80 61/89/61 3/92/3 60/135/60

# 60 faces
