# Wavefront Obj file
# 
# verts: 32 uv-s: 68
mtllib Picture.mtl

g Cube
#pivot 0.000000 0.000000 0.000000

v -0.450000 -0.250000 -0.011556
v 0.450000 -0.250000 -0.011556
v -0.450000 0.250000 -0.011556
v 0.450000 0.250000 -0.011556
v -0.450000 -0.250000 0.011556
v 0.450000 -0.250000 0.011556
v -0.450000 0.250000 0.011556
v 0.450000 0.250000 0.011556
v -0.430032 -0.250000 -0.011556
v -0.430032 0.250000 -0.011556
v -0.430032 0.250000 0.011556
v -0.430032 -0.250000 0.011556
v 0.450000 0.230264 -0.011556
v -0.450000 0.230264 -0.011556
v 0.450000 0.230264 0.011556
v -0.450000 0.230264 0.011556
v -0.430032 0.230264 0.011556
v 0.430032 0.250000 -0.011556
v 0.430032 -0.250000 0.011556
v 0.430032 -0.250000 -0.011556
v 0.430032 0.250000 0.011556
v 0.430032 0.230264 0.011556
v 0.450000 -0.230264 -0.011556
v -0.450000 -0.230264 0.011556
v -0.430032 -0.230264 0.011556
v -0.450000 -0.230264 -0.011556
v 0.450000 -0.230264 0.011556
v 0.430032 -0.230264 0.011556
v -0.430032 0.230264 0.006055
v 0.430032 0.230264 0.006055
v -0.430032 -0.230264 0.006055
v 0.430032 -0.230264 0.006055
# 32 positions

vt 0.656781 0.005000
vt 0.656781 0.019293
vt 0.642321 0.019293
vt 0.642321 0.005000
vt 0.683939 0.005000
vt 0.683939 0.019461
vt 0.700677 0.019461
vt 0.700677 0.005000
vt 0.387348 0.063581
vt 0.373055 0.063581
vt 0.373055 0.046843
vt 0.387348 0.046843
vt 0.679080 0.005000
vt 0.679080 0.019461
vt 0.662343 0.019461
vt 0.662343 0.005000
vt 0.387348 0.025247
vt 0.373055 0.025247
vt 0.373055 0.041984
vt 0.387348 0.041984
vt 0.019461 0.367101
vt 0.005000 0.367101
vt 0.005000 0.352808
vt 0.019461 0.352808
vt 0.683939 0.642321
vt 0.683939 0.656781
vt 0.700677 0.656781
vt 0.700677 0.642321
vt 0.679080 0.642321
vt 0.662343 0.642321
vt 0.656781 0.352808
vt 0.656781 0.367101
vt 0.642321 0.367101
vt 0.642321 0.352808
vt 0.039540 0.063581
vt 0.039540 0.046843
vt 0.039540 0.025247
vt 0.025247 0.025247
vt 0.025247 0.041984
vt 0.039540 0.041984
vt 0.005000 0.019293
vt 0.019461 0.019293
vt 0.679080 0.656781
vt 0.662343 0.656781
vt 0.025247 0.063581
vt 0.025247 0.046843
vt 0.005000 0.005000
vt 0.019461 0.005000
vt 0.357227 0.995000
vt 0.357227 0.372140
vt 0.353243 0.372140
vt 0.353243 0.995000
vt 0.358762 0.072423
vt 0.025247 0.072423
vt 0.025247 0.068440
vt 0.358762 0.068440
vt 0.025247 0.081872
vt 0.358762 0.081872
vt 0.358762 0.077888
vt 0.025247 0.077888
vt 0.347779 0.372140
vt 0.347779 0.995000
vt 0.343795 0.995000
vt 0.343795 0.372140
vt 0.338515 0.995000
vt 0.338515 0.372140
vt 0.005000 0.372140
vt 0.005000 0.995000
# 68 texture coordinates

vn -0.707107 -0.707107 0.000000
vn 0.707107 -0.707107 0.000000
vn -0.707107 0.707107 0.000000
vn 0.707107 0.707107 0.000000
vn -0.577350 -0.577350 0.577350
vn 0.577350 -0.577350 0.577350
vn -0.577350 0.577350 0.577350
vn 0.577350 0.577350 0.577350
vn 0.000000 -1.000000 0.000000
vn 0.000000 1.000000 0.000000
vn 0.000000 0.707107 0.707107
vn 0.000000 -0.707107 0.707107
vn 1.000000 0.000000 0.000000
vn -1.000000 0.000000 0.000000
vn 0.707107 0.000000 0.707107
vn -0.707107 0.000000 0.707107
vn 0.301511 -0.301511 0.904534
vn 0.000000 1.000000 0.000000
vn 0.000000 -0.707107 0.707107
vn 0.000000 -1.000000 0.000000
vn 0.000000 0.707107 0.707107
vn -0.301511 -0.301511 0.904534
vn 1.000000 0.000000 0.000000
vn -0.707107 0.000000 0.707107
vn 0.301511 0.301511 0.904534
vn -1.000000 0.000000 0.000000
vn 0.707107 0.000000 0.707107
vn -0.301511 0.301511 0.904534
vn 0.577350 -0.577350 0.577350
vn -0.577350 -0.577350 0.577350
vn 0.577350 0.577350 0.577350
vn -0.577350 0.577350 0.577350
# 32 normals

usemtl Default
f 6/1/6 27/2/27 28/3/28 19/4/19
f 6/5/6 19/6/19 20/7/20 2/8/2
f 8/9/8 15/10/15 13/11/13 4/12/4
f 7/13/7 11/14/11 10/15/10 3/16/3
f 5/17/5 24/18/24 26/19/26 1/20/1
f 11/21/11 7/22/7 16/23/16 17/24/17
f 12/25/12 5/26/5 1/27/1 9/28/9
f 11/14/11 21/29/21 18/30/18 10/15/10
f 15/31/15 8/32/8 21/33/21 22/34/22
f 15/10/15 27/35/27 23/36/23 13/11/13
f 16/37/16 7/38/7 3/39/3 14/40/14
f 16/23/16 24/41/24 25/42/25 17/24/17
f 19/6/19 12/25/12 9/28/9 20/7/20
f 21/29/21 8/43/8 4/44/4 18/30/18
f 21/33/21 11/21/11 17/24/17 22/34/22
f 27/2/27 15/31/15 22/34/22 28/3/28
f 24/18/24 16/37/16 14/40/14 26/19/26
f 27/35/27 6/45/6 2/46/2 23/36/23
f 24/41/24 5/47/5 12/48/12 25/42/25
f 25/42/25 12/48/12 19/4/19 28/3/28
f 29/49/29 30/50/30 22/51/22 17/52/17
f 17/53/17 25/54/25 31/55/31 29/56/29
f 30/57/30 32/58/32 28/59/28 22/60/22
f 25/61/25 28/62/28 32/63/32 31/64/31
f 31/65/31 32/66/32 30/67/30 29/68/29

# 25 faces
