# Wavefront Obj file
# 
# verts: 96 uv-s: 234
mtllib Chair.mtl

g Chair
#pivot 0.000000 0.000000 0.000000

v -0.228600 0.000000 -0.228600
v 0.228600 0.000000 -0.228600
v -0.228600 0.457200 -0.228600
v 0.228600 0.457200 -0.228600
v -0.228600 0.000000 0.228600
v 0.228600 0.000000 0.228600
v -0.228600 0.457200 0.228600
v 0.228600 0.457200 0.228600
v -0.228600 0.000000 -0.156223
v 0.228600 0.000000 -0.156223
v 0.228600 0.457200 -0.156223
v -0.228600 0.457200 -0.156223
v 0.228600 1.092200 -0.228600
v 0.228600 1.092200 -0.156223
v -0.228600 1.092200 -0.228600
v -0.228600 1.092200 -0.156223
v 0.228600 0.389661 -0.228600
v -0.228600 0.389661 -0.228600
v 0.228600 0.389661 0.228600
v -0.228600 0.389661 0.228600
v 0.228600 0.389661 -0.156223
v -0.228600 0.389661 -0.156223
v 0.228600 0.000000 0.151736
v 0.228600 0.457200 0.151736
v -0.228600 0.457200 0.151736
v -0.228600 0.000000 0.151736
v 0.228600 0.389661 0.151736
v -0.228600 0.389661 0.151736
v 0.167545 0.457200 -0.228600
v 0.167545 0.000000 0.228600
v 0.167545 1.092200 -0.228600
v 0.167545 0.389661 -0.228600
v 0.167545 0.389661 0.228600
v 0.167545 0.000000 -0.228600
v 0.167545 0.457200 0.228600
v 0.167545 0.457200 -0.156223
v 0.167545 1.092200 -0.156223
v 0.167545 0.457200 0.151736
v -0.167545 0.000000 -0.228600
v -0.167545 0.457200 0.228600
v -0.167545 0.457200 -0.156223
v -0.167545 1.092200 -0.156223
v -0.167545 0.457200 0.151736
v -0.167545 0.457200 -0.228600
v -0.167545 0.000000 0.228600
v -0.167545 1.092200 -0.228600
v -0.167545 0.389661 -0.228600
v -0.167545 0.389661 0.228600
v 0.228600 1.043577 -0.228600
v 0.228600 1.043577 -0.156223
v -0.228600 1.043577 -0.228600
v -0.228600 1.043577 -0.156223
v 0.167545 1.043577 -0.228600
v 0.167545 1.043577 -0.156223
v -0.167545 1.043577 -0.156223
v -0.167545 1.043577 -0.228600
v 0.228600 0.827061 -0.156223
v 0.167545 0.827061 -0.228600
v 0.167545 0.827061 -0.156223
v -0.167545 0.827061 -0.156223
v -0.167545 0.827061 -0.228600
v 0.228600 0.827061 -0.228600
v -0.228600 0.827061 -0.228600
v -0.228600 0.827061 -0.156223
v 0.228600 0.883067 -0.228600
v -0.228600 0.883067 -0.228600
v -0.228600 0.883067 -0.156223
v 0.228600 0.883067 -0.156223
v 0.167545 0.883067 -0.228600
v 0.167545 0.883067 -0.156223
v -0.167545 0.883067 -0.156223
v -0.167545 0.883067 -0.228600
v 0.228600 0.601994 -0.156223
v 0.167545 0.601994 -0.228600
v 0.167545 0.601994 -0.156223
v -0.167545 0.601994 -0.156223
v -0.167545 0.601994 -0.228600
v 0.228600 0.601994 -0.228600
v -0.228600 0.601994 -0.228600
v -0.228600 0.601994 -0.156223
v 0.228600 0.660414 -0.228600
v -0.228600 0.660414 -0.228600
v -0.228600 0.660414 -0.156223
v 0.228600 0.660414 -0.156223
v 0.167545 0.660414 -0.228600
v 0.167545 0.660414 -0.156223
v -0.167545 0.660414 -0.156223
v -0.167545 0.660414 -0.228600
v 0.167545 0.389661 -0.156223
v 0.167545 0.000000 -0.156223
v -0.167545 0.000000 -0.156223
v -0.167545 0.389661 -0.156223
v 0.167545 0.000000 0.151736
v 0.167545 0.389661 0.151736
v -0.167545 0.000000 0.151736
v -0.167545 0.389661 0.151736
# 96 positions

vt 0.005000 0.367619
vt 0.005000 0.406187
vt 0.039866 0.406187
vt 0.039866 0.367619
vt 0.938083 0.422972
vt 0.938083 0.645489
vt 0.903217 0.645489
vt 0.903217 0.422972
vt 0.534524 0.266085
vt 0.495956 0.266085
vt 0.495956 0.222192
vt 0.534524 0.222192
vt 0.266085 0.686006
vt 0.266085 0.720871
vt 0.222192 0.720871
vt 0.222192 0.686006
vt 0.670141 0.417567
vt 0.447624 0.417567
vt 0.447624 0.461460
vt 0.670141 0.461460
vt 0.273439 0.046331
vt 0.273439 0.005000
vt 0.495956 0.005000
vt 0.495956 0.046331
vt 0.583209 0.314729
vt 0.541878 0.314729
vt 0.541878 0.279863
vt 0.583209 0.279863
vt 0.409055 0.637321
vt 0.409055 0.678652
vt 0.447624 0.678652
vt 0.447624 0.637321
vt 0.534524 0.046331
vt 0.534524 0.005000
vt 0.617209 0.005000
vt 0.617209 0.046331
vt 0.039866 0.284934
vt 0.005000 0.284934
vt 0.326370 0.637321
vt 0.326370 0.678652
vt 0.676998 0.053643
vt 0.711864 0.053643
vt 0.711864 0.136328
vt 0.676998 0.136328
vt 0.005000 0.628704
vt 0.039866 0.628704
vt 0.938083 0.684057
vt 0.903217 0.684057
vt 0.273439 0.266085
vt 0.273439 0.222192
vt 0.409055 0.417567
vt 0.409055 0.461460
vt 0.670141 0.678652
vt 0.670141 0.637321
vt 0.222192 0.947091
vt 0.046331 0.947091
vt 0.046331 0.912226
vt 0.222192 0.912226
vt 0.231220 0.406187
vt 0.231220 0.367619
vt 0.266085 0.912226
vt 0.541878 0.088509
vt 0.583209 0.088509
vt 0.711863 0.684057
vt 0.711863 0.645489
vt 0.046331 0.720871
vt 0.266085 0.947091
vt 0.903217 0.053643
vt 0.938083 0.053643
vt 0.938083 0.136328
vt 0.903217 0.136328
vt 0.266085 0.406187
vt 0.266085 0.367619
vt 0.676998 0.645489
vt 0.676998 0.422972
vt 0.711863 0.422972
vt 0.541878 0.053643
vt 0.583209 0.053643
vt 0.266085 0.284934
vt 0.231220 0.284934
vt 0.231220 0.628704
vt 0.266085 0.628704
vt 0.676998 0.684057
vt 0.046331 0.686006
vt 0.869376 0.005000
vt 0.897143 0.005000
vt 0.897143 0.046331
vt 0.869376 0.046331
vt 0.039866 0.032766
vt 0.039866 0.005000
vt 0.005000 0.005000
vt 0.005000 0.032766
vt 0.074203 0.637321
vt 0.046437 0.637321
vt 0.046437 0.678652
vt 0.074203 0.678652
vt 0.711864 0.388495
vt 0.711864 0.416262
vt 0.676998 0.416262
vt 0.676998 0.388495
vt 0.231220 0.032766
vt 0.231220 0.005000
vt 0.903217 0.388495
vt 0.903217 0.416262
vt 0.938083 0.388495
vt 0.938083 0.416262
vt 0.266085 0.032766
vt 0.266085 0.005000
vt 0.745734 0.005000
vt 0.777717 0.005000
vt 0.777717 0.046331
vt 0.745734 0.046331
vt 0.039866 0.156408
vt 0.039866 0.124426
vt 0.005000 0.124426
vt 0.005000 0.156408
vt 0.197845 0.637321
vt 0.165863 0.637321
vt 0.165863 0.678652
vt 0.197845 0.678652
vt 0.711864 0.264853
vt 0.711864 0.296836
vt 0.676998 0.296836
vt 0.676998 0.264853
vt 0.231220 0.156408
vt 0.231220 0.124426
vt 0.903217 0.264853
vt 0.903217 0.296836
vt 0.938083 0.264853
vt 0.938083 0.296836
vt 0.266085 0.156408
vt 0.266085 0.124426
vt 0.650570 0.005000
vt 0.650570 0.046331
vt 0.039866 0.251573
vt 0.005000 0.251573
vt 0.293009 0.637321
vt 0.293009 0.678652
vt 0.711864 0.169689
vt 0.676998 0.169689
vt 0.231220 0.251573
vt 0.903217 0.169689
vt 0.938083 0.169689
vt 0.266085 0.251573
vt 0.005000 0.912226
vt 0.005000 0.720871
vt 0.273439 0.143618
vt 0.356124 0.143618
vt 0.356124 0.102287
vt 0.273439 0.102287
vt 0.356124 0.192261
vt 0.273439 0.192261
vt 0.273439 0.150930
vt 0.356124 0.150930
vt 0.363413 0.605318
vt 0.363413 0.413964
vt 0.322082 0.413964
vt 0.322082 0.605318
vt 0.096776 0.605318
vt 0.096776 0.413964
vt 0.055445 0.413964
vt 0.055445 0.605318
vt 0.046437 0.332786
vt 0.141601 0.332786
vt 0.141601 0.291455
vt 0.046437 0.291455
vt 0.368603 0.094974
vt 0.273439 0.094974
vt 0.273439 0.053643
vt 0.368603 0.053643
vt 0.145419 0.413964
vt 0.145419 0.605318
vt 0.104088 0.605318
vt 0.104088 0.413964
vt 0.194063 0.605318
vt 0.194063 0.413964
vt 0.152731 0.413964
vt 0.152731 0.605318
vt 0.046437 0.080562
vt 0.138097 0.080562
vt 0.138097 0.039230
vt 0.046437 0.039230
vt 0.138097 0.204872
vt 0.046437 0.204872
vt 0.046437 0.163541
vt 0.138097 0.163541
vt 0.314770 0.413964
vt 0.314770 0.605318
vt 0.273439 0.605318
vt 0.273439 0.413964
vt 0.534524 0.912226
vt 0.534524 0.720871
vt 0.493193 0.720871
vt 0.493193 0.912226
vt 0.995000 0.691411
vt 0.772483 0.691411
vt 0.772483 0.732742
vt 0.995000 0.732742
vt 0.495956 0.314770
vt 0.273439 0.314770
vt 0.273439 0.273439
vt 0.495956 0.273439
vt 0.273439 0.365975
vt 0.495956 0.365975
vt 0.495956 0.322082
vt 0.273439 0.322082
vt 0.541878 0.691411
vt 0.764394 0.691411
vt 0.764394 0.735304
vt 0.541878 0.735304
vt 0.273439 0.912226
vt 0.317332 0.912226
vt 0.317332 0.720871
vt 0.273439 0.720871
vt 0.273439 0.407393
vt 0.495956 0.407393
vt 0.495956 0.372527
vt 0.273439 0.372527
vt 0.764394 0.741856
vt 0.541878 0.741856
vt 0.541878 0.776721
vt 0.764394 0.776721
vt 0.764394 0.824729
vt 0.541878 0.824729
vt 0.541878 0.859595
vt 0.764394 0.859595
vt 0.541878 0.818158
vt 0.764394 0.818158
vt 0.764394 0.783292
vt 0.541878 0.783292
vt 0.493193 0.686006
vt 0.317332 0.686006
vt 0.317332 0.947091
vt 0.493193 0.947091
# 234 texture coordinates

vn -0.707107 0.000000 -0.707107
vn 0.707107 0.000000 -0.707107
vn -0.707107 0.000000 -0.707107
vn 0.707107 0.000000 -0.707107
vn -0.707107 0.000000 0.707107
vn 0.707107 0.000000 0.707107
vn -0.577350 0.577350 0.577350
vn 0.577350 0.577350 0.577350
vn -0.707107 0.000000 0.707107
vn 0.707107 0.000000 0.707107
vn 0.904534 0.301511 0.301511
vn -0.904534 0.301511 0.301511
vn 0.577350 0.577350 -0.577350
vn 0.577350 0.577350 0.577350
vn -0.577350 0.577350 -0.577350
vn -0.577350 0.577350 0.577350
vn 0.707107 0.000000 -0.707107
vn -0.707107 0.000000 -0.707107
vn 0.707107 0.000000 0.707107
vn -0.707107 0.000000 0.707107
vn 0.904534 -0.301511 0.301511
vn -0.904534 -0.301511 0.301511
vn 0.707107 0.000000 -0.707107
vn 0.707107 0.707107 0.000000
vn -0.707107 0.707107 0.000000
vn -0.707107 0.000000 -0.707107
vn 0.904534 -0.301511 -0.301511
vn -0.904534 -0.301511 -0.301511
vn -0.301511 0.301511 -0.904534
vn -0.707107 0.000000 0.707107
vn 0.000000 0.707107 -0.707107
vn -0.301511 -0.301511 -0.904534
vn -0.301511 -0.301511 0.904534
vn -0.707107 0.000000 -0.707107
vn 0.000000 0.707107 0.707107
vn -0.301511 0.904534 0.301511
vn 0.000000 0.707107 0.707107
vn 0.000000 1.000000 0.000000
vn 0.707107 0.000000 -0.707107
vn 0.000000 0.707107 0.707107
vn 0.301511 0.904534 0.301511
vn 0.000000 0.707107 0.707107
vn 0.000000 1.000000 0.000000
vn 0.301511 0.301511 -0.904534
vn 0.707107 0.000000 0.707107
vn 0.000000 0.707107 -0.707107
vn 0.301511 -0.301511 -0.904534
vn 0.301511 -0.301511 0.904534
vn 0.707107 0.000000 -0.707107
vn 0.707107 0.000000 0.707107
vn -0.707107 0.000000 -0.707107
vn -0.707107 0.000000 0.707107
vn -0.301511 -0.301511 -0.904534
vn -0.301511 -0.301511 0.904534
vn 0.301511 -0.301511 0.904534
vn 0.301511 -0.301511 -0.904534
vn 0.707107 0.000000 0.707107
vn -0.301511 -0.301511 -0.904534
vn -0.301511 -0.301511 0.904534
vn 0.301511 -0.301511 0.904534
vn 0.301511 -0.301511 -0.904534
vn 0.707107 0.000000 -0.707107
vn -0.707107 0.000000 -0.707107
vn -0.707107 0.000000 0.707107
vn 0.707107 0.000000 -0.707107
vn -0.707107 0.000000 -0.707107
vn -0.707107 0.000000 0.707107
vn 0.707107 0.000000 0.707107
vn -0.301511 0.301511 -0.904534
vn -0.301511 0.301511 0.904534
vn 0.301511 0.301511 0.904534
vn 0.301511 0.301511 -0.904534
vn 0.707107 0.000000 0.707107
vn -0.301511 -0.301511 -0.904534
vn -0.301511 -0.301511 0.904534
vn 0.301511 -0.301511 0.904534
vn 0.301511 -0.301511 -0.904534
vn 0.707107 0.000000 -0.707107
vn -0.707107 0.000000 -0.707107
vn -0.707107 0.000000 0.707107
vn 0.707107 0.000000 -0.707107
vn -0.707107 0.000000 -0.707107
vn -0.707107 0.000000 0.707107
vn 0.707107 0.000000 0.707107
vn -0.301511 0.301511 -0.904534
vn -0.301511 0.301511 0.904534
vn 0.301511 0.301511 0.904534
vn 0.301511 0.301511 -0.904534
vn -0.301511 -0.904534 0.301511
vn -0.707107 0.000000 0.707107
vn 0.707107 0.000000 0.707107
vn 0.301511 -0.904534 0.301511
vn -0.707107 0.000000 -0.707107
vn -0.301511 -0.904534 -0.301511
vn 0.707107 0.000000 -0.707107
vn 0.301511 -0.904534 -0.301511
# 96 normals

usemtl Default
f 4/1/4 17/2/17 32/3/32 29/4/29
f 6/5/6 19/6/19 33/7/33 30/8/30
f 8/9/8 19/10/19 27/11/27 24/12/24
f 7/13/7 40/14/40 43/15/43 25/16/25
f 5/17/5 20/18/20 28/19/28 26/20/26
f 10/21/10 2/22/2 17/23/17 21/24/21
f 14/25/14 13/26/13 31/27/31 37/28/37
f 12/29/12 3/30/3 18/31/18 22/32/22
f 11/33/11 4/34/4 78/35/78 73/36/73
f 4/1/4 29/4/29 74/37/74 78/38/78
f 3/30/3 12/29/12 80/39/80 79/40/79
f 12/41/12 41/42/41 76/43/76 80/44/80
f 17/2/17 2/45/2 34/46/34 32/3/32
f 19/6/19 8/47/8 35/48/35 33/7/33
f 19/10/19 6/49/6 23/50/23 27/11/27
f 20/18/20 7/51/7 25/52/25 28/19/28
f 17/23/17 4/34/4 11/33/11 21/24/21
f 18/31/18 1/53/1 9/54/9 22/32/22
f 27/11/27 21/24/21 11/33/11 24/12/24
f 24/55/24 11/56/11 36/57/36 38/58/38
f 25/52/25 12/29/12 22/32/22 28/19/28
f 47/59/47 44/60/44 29/4/29 32/3/32
f 35/61/35 38/58/38 43/15/43 40/14/40
f 46/62/46 42/63/42 37/28/37 31/27/31
f 40/64/40 48/65/48 33/7/33 35/48/35
f 41/66/41 43/15/43 38/58/38 36/57/36
f 35/61/35 8/67/8 24/55/24 38/58/38
f 36/68/36 11/69/11 73/70/73 75/71/75
f 47/59/47 18/72/18 3/73/3 44/60/44
f 48/65/48 20/74/20 5/75/5 45/76/45
f 46/62/46 15/77/15 16/78/16 42/63/42
f 44/60/44 3/73/3 79/79/79 77/80/77
f 39/81/39 1/82/1 18/72/18 47/59/47
f 40/64/40 7/83/7 20/74/20 48/65/48
f 41/66/41 12/84/12 25/16/25 43/15/43
f 49/85/49 13/86/13 14/87/14 50/88/50
f 53/89/53 31/90/31 13/91/13 49/92/49
f 52/93/52 16/94/16 15/95/15 51/96/51
f 55/97/55 42/98/42 16/99/16 52/100/52
f 56/101/56 46/102/46 31/90/31 53/89/53
f 54/103/54 37/104/37 42/98/42 55/97/55
f 50/105/50 14/106/14 37/104/37 54/103/54
f 51/107/51 15/108/15 46/102/46 56/101/56
f 62/109/62 65/110/65 68/111/68 57/112/57
f 58/113/58 69/114/69 65/115/65 62/116/62
f 64/117/64 67/118/67 66/119/66 63/120/63
f 60/121/60 71/122/71 67/123/67 64/124/64
f 61/125/61 72/126/72 69/114/69 58/113/58
f 59/127/59 70/128/70 71/122/71 60/121/60
f 57/129/57 68/130/68 70/128/70 59/127/59
f 63/131/63 66/132/66 72/126/72 61/125/61
f 65/110/65 49/85/49 50/88/50 68/111/68
f 69/114/69 53/89/53 49/92/49 65/115/65
f 67/118/67 52/93/52 51/96/51 66/119/66
f 71/122/71 55/97/55 52/100/52 67/123/67
f 68/130/68 50/105/50 54/103/54 70/128/70
f 66/132/66 51/107/51 56/101/56 72/126/72
f 78/35/78 81/133/81 84/134/84 73/36/73
f 74/37/74 85/135/85 81/136/81 78/38/78
f 80/39/80 83/137/83 82/138/82 79/40/79
f 76/43/76 87/139/87 83/140/83 80/44/80
f 77/80/77 88/141/88 85/135/85 74/37/74
f 75/71/75 86/142/86 87/139/87 76/43/76
f 73/70/73 84/143/84 86/142/86 75/71/75
f 79/79/79 82/144/82 88/141/88 77/80/77
f 81/133/81 62/109/62 57/112/57 84/134/84
f 85/135/85 58/113/58 62/116/62 81/136/81
f 83/137/83 64/117/64 63/120/63 82/138/82
f 87/139/87 60/121/60 64/124/64 83/140/83
f 84/143/84 57/129/57 59/127/59 86/142/86
f 82/144/82 63/131/63 61/125/61 88/141/88
f 29/145/29 44/146/44 41/66/41 36/57/36
f 74/147/74 29/148/29 36/149/36 75/150/75
f 76/151/76 41/152/41 44/153/44 77/154/77
f 77/155/77 74/156/74 75/157/75 76/158/76
f 61/159/61 58/160/58 59/161/59 60/162/60
f 58/163/58 85/164/85 86/165/86 59/166/59
f 60/167/60 87/168/87 88/169/88 61/170/61
f 87/171/87 86/172/86 85/173/85 88/174/88
f 56/175/56 53/176/53 54/177/54 55/178/55
f 53/179/53 69/180/69 70/181/70 54/182/54
f 55/183/55 71/184/71 72/185/72 56/186/56
f 71/187/71 70/188/70 69/189/69 72/190/72
f 47/191/47 32/192/32 89/193/89 92/194/92
f 90/195/90 89/196/89 32/197/32 34/198/34
f 92/199/92 91/200/91 39/201/39 47/202/47
f 94/203/94 93/204/93 30/205/30 33/206/33
f 95/207/95 96/208/96 48/209/48 45/210/45
f 48/211/48 96/212/96 94/213/94 33/214/33
f 96/215/96 95/216/95 26/217/26 28/218/28
f 93/219/93 94/220/94 27/221/27 23/222/23
f 10/223/10 21/224/21 89/225/89 90/226/90
f 22/227/22 9/228/9 91/229/91 92/230/92
f 21/231/21 27/232/27 94/213/94 89/193/89
f 92/194/92 96/212/96 28/233/28 22/234/22
f 94/213/94 96/212/96 92/194/92 89/193/89

# 96 faces
