# Wavefront Obj file
# 
# verts: 40 uv-s: 68
mtllib TableTop.mtl

g Cylinder
#pivot 0.000000 0.000000 0.000000

v 4.898410 0.800026 -7.809054
v 4.898410 0.825006 -7.809054
v 4.849468 0.800026 -7.500037
v 4.849468 0.825006 -7.500037
v 4.707428 0.800026 -7.221270
v 4.707428 0.825006 -7.221270
v 4.486195 0.800026 -7.000037
v 4.486195 0.825006 -7.000037
v 4.207428 0.800026 -6.857997
v 4.207428 0.825006 -6.857997
v 3.898410 0.800026 -6.809054
v 3.898410 0.825006 -6.809054
v 3.589393 0.800026 -6.857997
v 3.589393 0.825006 -6.857997
v 3.310626 0.800026 -7.000037
v 3.310626 0.825006 -7.000037
v 3.089393 0.800026 -7.221270
v 3.089393 0.825006 -7.221270
v 2.947353 0.800026 -7.500037
v 2.947353 0.825006 -7.500037
v 2.898410 0.800026 -7.809054
v 2.898410 0.825006 -7.809054
v 2.947353 0.800026 -8.118072
v 2.947353 0.825006 -8.118072
v 3.089393 0.800026 -8.396839
v 3.089393 0.825006 -8.396839
v 3.310626 0.800026 -8.618072
v 3.310626 0.825006 -8.618072
v 3.589393 0.800026 -8.760112
v 3.589393 0.825006 -8.760112
v 3.898410 0.800026 -8.809054
v 3.898410 0.825006 -8.809054
v 4.207428 0.800026 -8.760112
v 4.207428 0.825006 -8.760112
v 4.486195 0.800026 -8.618072
v 4.486195 0.825006 -8.618072
v 4.707428 0.800026 -8.396840
v 4.707428 0.825006 -8.396840
v 4.849468 0.800026 -8.118072
v 4.849468 0.825006 -8.118072
# 40 positions

vt 0.005000 0.777539
vt 0.005000 0.668331
vt 0.013828 0.668331
vt 0.013828 0.777539
vt 0.005000 0.876056
vt 0.013828 0.876056
vt 0.005000 0.954241
vt 0.013828 0.954241
vt 0.855723 0.005000
vt 0.954240 0.005000
vt 0.954240 0.013828
vt 0.855723 0.013828
vt 0.746515 0.005000
vt 0.746515 0.013828
vt 0.637307 0.005000
vt 0.637307 0.013828
vt 0.538790 0.005000
vt 0.538790 0.013828
vt 0.460605 0.005000
vt 0.460605 0.013828
vt 0.028472 0.594920
vt 0.028472 0.496403
vt 0.019644 0.496403
vt 0.019644 0.594920
vt 0.028472 0.704128
vt 0.019644 0.704128
vt 0.028472 0.813336
vt 0.019644 0.813336
vt 0.028472 0.911853
vt 0.019644 0.911853
vt 0.916815 0.716762
vt 0.995000 0.716762
vt 0.995000 0.707934
vt 0.916815 0.707934
vt 0.818298 0.716762
vt 0.818298 0.707934
vt 0.709090 0.716762
vt 0.709090 0.707934
vt 0.599882 0.716762
vt 0.599882 0.707934
vt 0.501365 0.716762
vt 0.501365 0.707934
vt 0.423181 0.716762
vt 0.423181 0.707934
vt 0.005000 0.559123
vt 0.005000 0.460605
vt 0.013828 0.460605
vt 0.013828 0.559123
vt 0.249196 0.694511
vt 0.150678 0.072494
vt 0.249196 0.022297
vt 0.358404 0.711807
vt 0.072494 0.566129
vt 0.022296 0.467612
vt 0.005000 0.358404
vt 0.022296 0.249196
vt 0.150678 0.644314
vt 0.072494 0.150679
vt 0.358404 0.005000
vt 0.467611 0.694511
vt 0.467611 0.022297
vt 0.566129 0.644314
vt 0.566129 0.072494
vt 0.644313 0.566129
vt 0.644313 0.150679
vt 0.694511 0.467612
vt 0.694511 0.249196
vt 0.711807 0.358404
# 68 texture coordinates

vn 1.000000 0.000000 0.000000
vn 0.702714 0.711473 0.000000
vn 0.951056 0.000000 0.309017
vn 0.668320 0.711473 0.217150
vn 0.809016 0.000000 0.587786
vn 0.568507 0.711473 0.413045
vn 0.587787 0.000000 0.809016
vn 0.413046 0.711473 0.568506
vn 0.309017 0.000000 0.951056
vn 0.217151 0.711473 0.668320
vn -0.000000 0.000000 1.000000
vn -0.000000 0.451656 0.892192
vn -0.309018 0.000000 0.951056
vn -0.275703 0.451657 0.848525
vn -0.587786 0.000000 0.809016
vn -0.413046 0.711473 0.568507
vn -0.809016 0.000000 0.587787
vn -0.568506 0.711473 0.413046
vn -0.951056 0.000000 0.309018
vn -0.668320 0.711473 0.217151
vn -1.000000 0.000000 0.000000
vn -0.702714 0.711473 0.000000
vn -0.951056 0.000000 -0.309017
vn -0.668320 0.711473 -0.217151
vn -0.809016 0.000000 -0.587787
vn -0.568506 0.711473 -0.413046
vn -0.587786 0.000000 -0.809016
vn -0.413045 0.711473 -0.568507
vn -0.309018 0.000000 -0.951056
vn -0.217151 0.711473 -0.668320
vn -0.000000 0.000000 -1.000000
vn -0.000000 0.451656 -0.892192
vn 0.309017 0.000000 -0.951056
vn 0.275703 0.451657 -0.848525
vn 0.587785 0.000000 -0.809017
vn 0.413045 0.711473 -0.568507
vn 0.809016 0.000000 -0.587787
vn 0.568506 0.711473 -0.413046
vn 0.951057 0.000000 -0.309016
vn 0.668320 0.711473 -0.217149
# 40 normals

usemtl Wood
f 3/1/3 1/2/1 2/3/2 4/4/4
f 5/5/5 3/1/3 4/4/4 6/6/6
f 7/7/7 5/5/5 6/6/6 8/8/8
f 9/9/9 7/10/7 8/11/8 10/12/10
f 11/13/11 9/9/9 10/12/10 12/14/12
f 13/15/13 11/13/11 12/14/12 14/16/14
f 15/17/15 13/15/13 14/16/14 16/18/16
f 17/19/17 15/17/15 16/18/16 18/20/18
f 19/21/19 17/22/17 18/23/18 20/24/20
f 21/25/21 19/21/19 20/24/20 22/26/22
f 23/27/23 21/25/21 22/26/22 24/28/24
f 25/29/25 23/27/23 24/28/24 26/30/26
f 27/31/27 25/32/25 26/33/26 28/34/28
f 29/35/29 27/31/27 28/34/28 30/36/30
f 31/37/31 29/35/29 30/36/30 32/38/32
f 33/39/33 31/37/31 32/38/32 34/40/34
f 35/41/35 33/39/33 34/40/34 36/42/36
f 37/43/37 35/41/35 36/42/36 38/44/38
f 39/45/39 37/46/37 38/47/38 40/48/40
f 1/2/1 39/45/39 40/48/40 2/3/2
f 40/49/40 26/50/26 24/51/24 2/52/2
f 36/53/36 34/54/34 32/55/32 30/56/30
f 38/57/38 36/53/36 30/56/30 28/58/28
f 40/49/40 38/57/38 28/58/28 26/50/26
f 24/51/24 22/59/22 4/60/4 2/52/2
f 22/59/22 20/61/20 6/62/6 4/60/4
f 20/61/20 18/63/18 8/64/8 6/62/6
f 18/63/18 16/65/16 10/66/10 8/64/8
f 16/65/16 14/67/14 12/68/12 10/66/10

# 29 faces
