# Wavefront Obj file
# 
# verts: 100 uv-s: 156
mtllib Roof.mtl

g Roof
#pivot 0.000000 0.000000 0.000000

v 3.470516 3.160138 -11.283872
v 3.822538 3.160138 -11.169548
v 3.470516 3.738917 -11.283872
v 3.822538 3.738917 -11.169548
v 0.008470 5.206385 -0.623589
v 0.008470 5.785164 -0.623589
v 9.373810 3.160138 -7.177465
v 9.594223 3.160138 -6.880132
v 9.373810 3.738917 -7.177465
v 9.594223 3.738917 -6.880132
v 0.369677 5.206385 -0.502661
v 0.369677 5.785164 -0.502661
v 11.803209 3.160138 -0.304695
v 11.807014 3.160138 0.065406
v 11.803209 3.738917 -0.304695
v 11.807014 3.738917 0.065406
v 0.595439 5.206385 -0.189410
v 0.595439 5.785164 -0.189410
v 9.665913 3.160138 6.782642
v 9.448631 3.160138 7.082271
v 9.665913 3.738917 6.782642
v 9.448631 3.738917 7.082271
v 0.592233 5.206385 0.202695
v 0.592233 5.785164 0.202695
v 3.833418 3.160138 11.169393
v 3.481508 3.160138 11.284057
v 3.833418 3.738917 11.169393
v 3.481508 3.738917 11.284057
v 0.360989 5.206385 0.512486
v 0.360989 5.785164 0.512486
v -3.523869 3.160138 11.270931
v -3.875347 3.160138 11.154947
v -3.523869 3.738917 11.270931
v -3.875347 3.738917 11.154947
v -0.011528 5.206385 0.627113
v -0.011528 5.785164 0.627113
v -9.498066 3.160138 7.015958
v -9.713247 3.160138 6.714814
v -9.498066 3.738917 7.015958
v -9.713247 3.738917 6.714814
v -0.378551 5.206385 0.499687
v -0.378551 5.785164 0.499687
v -11.806410 3.160138 0.146125
v -11.805136 3.160138 -0.223994
v -11.806410 3.738917 0.146125
v -11.805136 3.738917 -0.223994
v -0.598115 5.206385 0.184784
v -0.598115 5.785164 0.184784
v -9.631393 3.160138 -6.828165
v -9.412586 3.160138 -7.126685
v -9.631393 3.738917 -6.828165
v -9.412586 3.738917 -7.126685
v -0.591308 5.206385 -0.202134
v -0.591308 5.785164 -0.202134
v -3.755727 3.160138 -11.192225
v -3.403026 3.160138 -11.304437
v -3.755727 3.738917 -11.192225
v -3.403026 3.738917 -11.304437
v -0.357533 5.206385 -0.511414
v -0.357533 5.785164 -0.511414
v 3.956657 3.274658 -11.561118
v 3.956657 3.160138 -11.561118
v 3.592283 3.160138 -11.679454
v 3.592283 3.274658 -11.679454
v 9.930864 3.274658 -7.121191
v 9.930864 3.160138 -7.121191
v 9.702717 3.160138 -7.428958
v 9.702717 3.274658 -7.428958
v 12.221300 3.274658 0.068059
v 12.221300 3.160138 0.068059
v 12.217363 3.160138 -0.315029
v 12.217363 3.274658 -0.315029
v 9.780165 3.274658 7.331139
v 9.780165 3.160138 7.331139
v 10.005074 3.160138 7.020996
v 10.005074 3.274658 7.020996
v 3.603659 3.274658 11.680360
v 3.603659 3.160138 11.680360
v 3.967919 3.160138 11.561672
v 3.967919 3.274658 11.561672
v -4.011340 3.274658 11.546721
v -4.011340 3.160138 11.546721
v -3.647528 3.160138 11.666776
v -3.647528 3.274658 11.666776
v -10.054085 3.274658 6.950788
v -10.054085 3.160138 6.950788
v -9.831356 3.160138 7.262499
v -9.831356 3.274658 7.262499
v -12.219372 3.274658 -0.231496
v -12.219372 3.160138 -0.231496
v -12.220697 3.160138 0.151610
v -12.220697 3.274658 0.151610
v -9.742874 3.274658 -7.376396
v -9.742874 3.160138 -7.376396
v -9.969358 3.160138 -7.067401
v -9.969358 3.274658 -7.067401
v -3.522446 3.274658 -11.700740
v -3.522446 3.160138 -11.700740
v -3.887522 3.160138 -11.584588
v -3.887522 3.274658 -11.584588
# 100 positions

vt 0.005000 0.594417
vt 0.005000 0.596997
vt 0.013209 0.596997
vt 0.013209 0.594417
vt 0.282212 0.280159
vt 0.522392 0.202158
vt 0.519817 0.194227
vt 0.279488 0.272021
vt 0.719983 0.737313
vt 0.479654 0.815107
vt 0.477078 0.807176
vt 0.717258 0.729174
vt 0.541603 0.105033
vt 0.539023 0.105033
vt 0.539023 0.098099
vt 0.541603 0.098099
vt 0.429874 0.069155
vt 0.423175 0.064189
vt 0.272430 0.266935
vt 0.727041 0.742399
vt 0.576296 0.945145
vt 0.569597 0.940179
vt 0.541603 0.267010
vt 0.539023 0.267010
vt 0.539023 0.258378
vt 0.541603 0.258378
vt 0.275028 0.014420
vt 0.266689 0.014334
vt 0.263596 0.267007
vt 0.735875 0.742327
vt 0.732782 0.995000
vt 0.724443 0.994914
vt 0.541603 0.430649
vt 0.539023 0.430649
vt 0.539023 0.423662
vt 0.541603 0.423662
vt 0.115347 0.062574
vt 0.108597 0.067469
vt 0.256616 0.272217
vt 0.742855 0.737117
vt 0.890874 0.941865
vt 0.884123 0.946760
vt 0.307696 0.565799
vt 0.307696 0.563218
vt 0.315903 0.563218
vt 0.315903 0.565799
vt 0.016512 0.193982
vt 0.013929 0.201911
vt 0.254034 0.280610
vt 0.745437 0.728724
vt 0.985542 0.807423
vt 0.982958 0.815352
vt 0.136127 0.565799
vt 0.136127 0.563218
vt 0.144324 0.563218
vt 0.144324 0.565799
vt 0.014225 0.359744
vt 0.016838 0.367663
vt 0.256905 0.288879
vt 0.742566 0.720455
vt 0.982633 0.641671
vt 0.985246 0.649590
vt 0.570222 0.012023
vt 0.572802 0.012023
vt 0.572802 0.005000
vt 0.570222 0.005000
vt 0.110091 0.494345
vt 0.116876 0.499193
vt 0.263999 0.293826
vt 0.735471 0.715508
vt 0.882595 0.510141
vt 0.889380 0.514989
vt 0.570222 0.173842
vt 0.572802 0.173842
vt 0.572802 0.165211
vt 0.570222 0.165211
vt 0.264870 0.546353
vt 0.273209 0.546324
vt 0.272717 0.293673
vt 0.726754 0.715661
vt 0.726261 0.463010
vt 0.734600 0.462981
vt 0.570222 0.334820
vt 0.572802 0.334820
vt 0.572802 0.327858
vt 0.570222 0.327858
vt 0.422004 0.497349
vt 0.428730 0.492419
vt 0.279685 0.288406
vt 0.719786 0.720928
vt 0.570741 0.516915
vt 0.577467 0.511985
vt 0.173507 0.594417
vt 0.173507 0.596997
vt 0.181732 0.596997
vt 0.181732 0.594417
vt 0.520328 0.364968
vt 0.522856 0.357022
vt 0.476615 0.652312
vt 0.479143 0.644366
vt 0.531305 0.199415
vt 0.528639 0.191205
vt 0.470832 0.818129
vt 0.468166 0.809919
vt 0.435540 0.061745
vt 0.428606 0.056604
vt 0.570865 0.952730
vt 0.563931 0.947589
vt 0.275260 0.005089
vt 0.266629 0.005000
vt 0.552063 0.258611
vt 0.552063 0.266950
vt 0.109977 0.054932
vt 0.102990 0.060000
vt 0.896481 0.949334
vt 0.889494 0.954402
vt 0.007674 0.190952
vt 0.005000 0.199159
vt 0.312872 0.576258
vt 0.304944 0.576258
vt 0.005306 0.362530
vt 0.008011 0.370727
vt 0.147110 0.576258
vt 0.139191 0.576258
vt 0.104536 0.501854
vt 0.111559 0.506872
vt 0.887912 0.502462
vt 0.894935 0.507480
vt 0.264747 0.555687
vt 0.273378 0.555657
vt 0.559762 0.165334
vt 0.559762 0.173673
vt 0.427394 0.504964
vt 0.434356 0.499861
vt 0.565115 0.509473
vt 0.572077 0.504370
vt 0.529168 0.367938
vt 0.531785 0.359712
vt 0.178763 0.583957
vt 0.170816 0.583957
vt 0.539023 0.005000
vt 0.541603 0.005000
vt 0.015953 0.583957
vt 0.313655 0.596997
vt 0.313655 0.594417
vt 0.470303 0.641396
vt 0.559762 0.322468
vt 0.559762 0.017340
vt 0.005000 0.565799
vt 0.005000 0.563218
vt 0.991460 0.638607
vt 0.446855 0.563218
vt 0.446855 0.565799
vt 0.991797 0.818382
vt 0.552063 0.418292
vt 0.552063 0.110464
# 156 texture coordinates

vn -0.014266 -0.995829 0.090112
vn -0.041720 -0.995825 0.081196
vn 0.076892 0.870736 -0.485701
vn 0.223181 0.870732 -0.438196
vn -0.000827 -0.991107 0.133066
vn 0.000827 0.991107 -0.133066
vn -0.064001 -0.995832 0.064977
vn -0.081272 -0.995820 0.041675
vn 0.344688 0.870792 -0.350588
vn 0.436547 0.870739 -0.226365
vn -0.078074 -0.991110 0.107728
vn 0.078074 0.991110 -0.107728
vn -0.089953 -0.995831 0.015109
vn -0.090254 -0.995815 -0.014362
vn 0.484641 0.870829 -0.082335
vn 0.486028 0.870761 0.074518
vn -0.126277 -0.991119 0.041684
vn 0.126277 0.991119 -0.041684
vn -0.081483 -0.995826 -0.041124
vn -0.064170 -0.995820 -0.064999
vn 0.439009 0.870851 0.221110
vn 0.346918 0.870880 0.348160
vn -0.126488 -0.991118 -0.041062
vn 0.126488 0.991118 0.041062
vn -0.041463 -0.995830 -0.081258
vn -0.013516 -0.995817 -0.090362
vn 0.223967 0.870955 0.437352
vn 0.075242 0.870888 0.485688
vn -0.077727 -0.991117 -0.107915
vn 0.077727 0.991117 0.107915
vn 0.014556 -0.995828 -0.090081
vn 0.042544 -0.995818 -0.080845
vn -0.077807 0.870943 0.485186
vn -0.226710 0.870890 0.436066
vn 0.000950 -0.991118 -0.132982
vn -0.000950 0.991118 0.132982
vn 0.064917 -0.995827 -0.064140
vn 0.081910 -0.995822 -0.040360
vn -0.349444 0.870911 0.345547
vn -0.439989 0.870877 0.219049
vn 0.079333 -0.991113 -0.106775
vn -0.079333 0.991113 0.106775
vn 0.090156 -0.995831 -0.013881
vn 0.090054 -0.995820 0.015283
vn -0.485689 0.870884 0.075279
vn -0.485132 0.870774 -0.079994
vn 0.126914 -0.991113 -0.039853
vn -0.126914 0.991113 0.039853
vn 0.081133 -0.995829 0.041730
vn 0.063797 -0.995819 0.065379
vn -0.437463 0.870786 -0.224406
vn -0.345177 0.870699 -0.350338
vn 0.126138 -0.991115 0.042184
vn -0.126137 0.991115 -0.042184
vn 0.041073 -0.995827 0.081493
vn 0.013296 -0.995823 0.090331
vn -0.221446 0.870716 -0.439107
vn -0.073525 0.870706 -0.486277
vn 0.077186 -0.991112 0.108351
vn -0.077186 0.991112 -0.108351
vn 0.422911 0.354696 -0.833869
vn 0.317516 -0.711342 -0.627037
vn 0.110932 -0.711386 -0.693991
vn 0.146988 0.354657 -0.923371
vn 0.829157 0.354747 -0.432034
vn 0.622986 -0.711463 -0.325129
vn 0.493381 -0.711343 -0.500567
vn 0.655900 0.354736 -0.666301
vn 0.924454 0.354835 0.139561
vn 0.694781 -0.711604 0.104398
vn 0.692925 -0.711464 -0.116940
vn 0.921796 0.354816 -0.156197
vn 0.661189 0.355024 0.660898
vn 0.497330 -0.711474 0.496456
vn 0.627035 -0.711605 0.316932
vn 0.834671 0.354907 0.421148
vn 0.145129 0.355063 0.923508
vn 0.109553 -0.711548 0.694044
vn 0.319554 -0.711474 0.625851
vn 0.425667 0.355068 0.832307
vn -0.429472 0.355056 0.830355
vn -0.322386 -0.711519 0.624346
vn -0.112155 -0.711549 0.693628
vn -0.148592 0.355066 0.922957
vn -0.836108 0.354997 0.418211
vn -0.628330 -0.711411 0.314795
vn -0.500361 -0.711519 0.493335
vn -0.665263 0.355014 0.656802
vn -0.922785 0.354821 -0.150233
vn -0.693647 -0.711483 -0.112452
vn -0.694618 -0.711412 0.106767
vn -0.923950 0.354928 0.142628
vn -0.657590 0.354681 -0.664663
vn -0.494545 -0.711500 -0.499192
vn -0.624830 -0.711483 -0.321526
vn -0.831632 0.354751 -0.427247
vn -0.141458 0.354658 -0.924233
vn -0.106776 -0.711386 -0.694643
vn -0.315475 -0.711500 -0.627888
vn -0.420332 0.354637 -0.835197
# 100 normals

usemtl Default
f 61/1/61 62/2/62 63/3/63 64/4/64
f 5/5/5 1/6/1 2/7/2 11/8/11
f 12/9/12 4/10/4 3/11/3 6/12/6
f 65/13/65 66/14/66 67/15/67 68/16/68
f 11/8/11 7/17/7 8/18/8 17/19/17
f 18/20/18 10/21/10 9/22/9 12/9/12
f 69/23/69 70/24/70 71/25/71 72/26/72
f 17/19/17 13/27/13 14/28/14 23/29/23
f 24/30/24 16/31/16 15/32/15 18/20/18
f 73/33/73 74/34/74 75/35/75 76/36/76
f 23/29/23 19/37/19 20/38/20 29/39/29
f 30/40/30 22/41/22 21/42/21 24/30/24
f 77/43/77 78/44/78 79/45/79 80/46/80
f 29/39/29 25/47/25 26/48/26 35/49/35
f 36/50/36 28/51/28 27/52/27 30/40/30
f 81/53/81 82/54/82 83/55/83 84/56/84
f 35/49/35 31/57/31 32/58/32 41/59/41
f 42/60/42 34/61/34 33/62/33 36/50/36
f 85/63/85 86/64/86 87/65/87 88/66/88
f 41/59/41 37/67/37 38/68/38 47/69/47
f 48/70/48 40/71/40 39/72/39 42/60/42
f 89/73/89 90/74/90 91/75/91 92/76/92
f 47/69/47 43/77/43 44/78/44 53/79/53
f 54/80/54 46/81/46 45/82/45 48/70/48
f 93/83/93 94/84/94 95/85/95 96/86/96
f 53/79/53 49/87/49 50/88/50 59/89/59
f 60/90/60 52/91/52 51/92/51 54/80/54
f 97/93/97 98/94/98 99/95/99 100/96/100
f 59/89/59 55/97/55 56/98/56 5/5/5
f 6/12/6 58/99/58 57/100/57 60/90/60
f 41/59/41 47/69/47 53/79/53 59/89/59 5/5/5 11/8/11 17/19/17 23/29/23 29/39/29 35/49/35
f 36/50/36 30/40/30 24/30/24 18/20/18 12/9/12 6/12/6 60/90/60 54/80/54 48/70/48 42/60/42
f 2/7/2 1/6/1 63/101/63 62/102/62
f 3/11/3 4/10/4 61/103/61 64/104/64
f 8/18/8 7/17/7 67/105/67 66/106/66
f 9/22/9 10/21/10 65/107/65 68/108/68
f 14/28/14 13/27/13 71/109/71 70/110/70
f 15/111/15 16/112/16 69/23/69 72/26/72
f 20/38/20 19/37/19 75/113/75 74/114/74
f 21/42/21 22/41/22 73/115/73 76/116/76
f 26/48/26 25/47/25 79/117/79 78/118/78
f 27/119/27 28/120/28 77/43/77 80/46/80
f 32/58/32 31/57/31 83/121/83 82/122/82
f 33/123/33 34/124/34 81/53/81 84/56/84
f 38/68/38 37/67/37 87/125/87 86/126/86
f 39/72/39 40/71/40 85/127/85 88/128/88
f 44/78/44 43/77/43 91/129/91 90/130/90
f 45/131/45 46/132/46 89/73/89 92/76/92
f 50/88/50 49/87/49 95/133/95 94/134/94
f 51/92/51 52/91/52 93/135/93 96/136/96
f 56/98/56 55/97/55 99/137/99 98/138/98
f 57/139/57 58/140/58 97/93/97 100/96/100
f 62/141/62 61/142/61 68/16/68 67/15/67
f 2/7/2 62/102/62 67/105/67 7/17/7
f 9/22/9 68/108/68 61/103/61 4/10/4
f 98/94/98 97/93/97 64/4/64 63/3/63
f 56/98/56 98/138/98 63/101/63 1/6/1
f 3/143/3 64/4/64 97/93/97 58/140/58
f 94/144/94 93/145/93 100/96/100 99/95/99
f 50/88/50 94/134/94 99/137/99 55/97/55
f 57/100/57 100/146/100 93/135/93 52/91/52
f 90/74/90 89/73/89 96/86/96 95/85/95
f 44/78/44 90/130/90 95/133/95 49/87/49
f 51/147/51 96/86/96 89/73/89 46/132/46
f 86/64/86 85/63/85 92/76/92 91/75/91
f 38/68/38 86/126/86 91/129/91 43/77/43
f 45/131/45 92/76/92 85/63/85 40/148/40
f 82/54/82 81/53/81 88/149/88 87/150/87
f 32/58/32 82/122/82 87/125/87 37/67/37
f 39/72/39 88/128/88 81/151/81 34/61/34
f 78/44/78 77/43/77 84/56/84 83/55/83
f 26/48/26 78/118/78 83/121/83 31/57/31
f 33/123/33 84/56/84 77/43/77 28/120/28
f 74/152/74 73/153/73 80/46/80 79/45/79
f 20/38/20 74/114/74 79/117/79 25/47/25
f 27/52/27 80/154/80 73/115/73 22/41/22
f 70/24/70 69/23/69 76/36/76 75/35/75
f 14/28/14 70/110/70 75/113/75 19/37/19
f 21/155/21 76/36/76 69/23/69 16/112/16
f 66/14/66 65/13/65 72/26/72 71/25/71
f 8/18/8 66/106/66 71/109/71 13/27/13
f 15/111/15 72/26/72 65/13/65 10/156/10
f 8/18/8 13/27/13 17/19/17
f 11/8/11 2/7/2 7/17/7
f 5/5/5 56/98/56 1/6/1
f 59/89/59 50/88/50 55/97/55
f 53/79/53 44/78/44 49/87/49
f 47/69/47 38/68/38 43/77/43
f 41/59/41 32/58/32 37/67/37
f 35/49/35 26/48/26 31/57/31
f 29/39/29 20/38/20 25/47/25
f 23/29/23 14/28/14 19/37/19
f 3/11/3 58/99/58 6/12/6
f 57/100/57 52/91/52 60/90/60
f 51/92/51 46/81/46 54/80/54
f 45/82/45 40/71/40 48/70/48
f 39/72/39 34/61/34 42/60/42
f 33/62/33 28/51/28 36/50/36
f 27/52/27 22/41/22 30/40/30
f 24/30/24 21/42/21 16/31/16
f 15/32/15 10/21/10 18/20/18
f 12/9/12 9/22/9 4/10/4

# 102 faces
