# Wavefront Obj file
# 
# verts: 30 uv-s: 72
mtllib MenuHolder.mtl

g Cube
#pivot 0.000000 0.000000 0.000000

v -0.051344 0.019405 -0.010672
v 0.051344 0.019405 -0.010672
v 0.051344 0.149801 -0.065140
v -0.051344 0.149801 -0.065140
v 0.051344 0.149801 -0.082493
v -0.051344 0.149801 -0.082493
v 0.051344 0.084603 -0.003201
v -0.051344 0.084603 -0.003201
v 0.051344 0.084603 -0.020554
v -0.051344 0.084603 -0.020554
v -0.051344 -0.000286 -0.062016
v 0.051344 -0.000286 -0.062016
v -0.051344 0.019394 -0.062016
v 0.051344 0.019394 -0.062016
v -0.051344 -0.000286 0.082493
v 0.051344 -0.000286 0.082493
v -0.051344 0.019394 0.082493
v 0.051344 0.019394 0.082493
v 0.051344 0.019394 0.024033
v -0.051344 0.019394 0.024033
v 0.051344 -0.000286 0.006680
v 0.051344 0.019394 0.006680
v -0.051344 0.019394 0.006680
v -0.051344 -0.000286 0.006680
v 0.051344 -0.000286 -0.010672
v 0.051344 0.019394 -0.010672
v -0.051344 0.019394 -0.010672
v -0.051344 -0.000286 -0.010672
v 0.051344 0.019394 -0.028025
v -0.051344 0.019394 -0.028025
# 30 positions

vt 0.005000 0.317836
vt 0.435543 0.317836
vt 0.435543 0.005000
vt 0.005000 0.005000
vt 0.579975 0.767336
vt 0.497008 0.767336
vt 0.497008 0.454499
vt 0.579975 0.454499
vt 0.642800 0.183097
vt 0.444142 0.266065
vt 0.444142 0.318930
vt 0.642800 0.235962
vt 0.527033 0.994371
vt 0.526999 0.941506
vt 0.924281 0.775570
vt 0.924281 0.828436
vt 0.368579 0.959978
vt 0.315714 0.959978
vt 0.315714 0.647142
vt 0.368579 0.647142
vt 0.433785 0.914577
vt 0.433785 0.967443
vt 0.831067 0.801507
vt 0.831033 0.748642
vt 0.435512 0.638907
vt 0.435512 0.326071
vt 0.005000 0.326071
vt 0.005000 0.638907
vt 0.969968 0.184178
vt 0.771311 0.267146
vt 0.771311 0.214281
vt 0.969968 0.131313
vt 0.779713 0.587122
vt 0.995000 0.587122
vt 0.995000 0.274285
vt 0.779713 0.274285
vt 0.444142 0.767336
vt 0.444142 0.454499
vt 0.247357 0.959978
vt 0.307311 0.959978
vt 0.307311 0.647142
vt 0.247357 0.647142
vt 0.176812 0.647142
vt 0.116857 0.647142
vt 0.116857 0.959978
vt 0.176812 0.959978
vt 0.771311 0.445243
vt 0.711356 0.445243
vt 0.711356 0.214281
vt 0.758072 0.454499
vt 0.758072 0.767336
vt 0.702754 0.005000
vt 0.642800 0.005000
vt 0.702754 0.235962
vt 0.711356 0.161418
vt 0.771311 0.161418
vt 0.238076 0.959978
vt 0.185214 0.959978
vt 0.185214 0.647142
vt 0.238076 0.647142
vt 0.642800 0.288825
vt 0.702754 0.288825
vt 0.771311 0.108553
vt 0.642800 0.341690
vt 0.711356 0.005000
vt 0.771311 0.005000
vt 0.108553 0.959978
vt 0.005000 0.959978
vt 0.005000 0.647142
vt 0.108553 0.647142
vt 0.642800 0.445243
vt 0.702754 0.445243
# 72 texture coordinates

vn -0.707107 0.272545 0.652472
vn 0.707107 0.272545 0.652472
vn 0.514966 0.713454 0.475177
vn -0.514966 0.713454 0.475177
vn 0.669773 0.411636 -0.618030
vn -0.669773 0.411636 -0.618030
vn 0.514974 0.713436 0.475196
vn -0.514974 0.713436 0.475196
vn 0.669764 0.411649 -0.618030
vn -0.669764 0.411649 -0.618030
vn -0.707107 0.000000 -0.707107
vn 0.707107 0.000000 -0.707107
vn -0.577350 0.577350 -0.577350
vn 0.577350 0.577350 -0.577350
vn -0.707107 0.000000 0.707107
vn 0.707107 0.000000 0.707107
vn -0.577350 0.577350 0.577350
vn 0.577350 0.577350 0.577350
vn 0.874418 0.403801 0.268958
vn -0.874418 0.403801 0.268958
vn 1.000000 0.000000 0.000000
vn 0.937993 0.192169 -0.288513
vn -0.937993 0.192169 -0.288513
vn -1.000000 0.000000 0.000000
vn 1.000000 0.000000 0.000000
vn 0.894427 0.447214 0.000000
vn -0.894427 0.447214 0.000000
vn -1.000000 0.000000 0.000000
vn 0.937996 0.192161 -0.288510
vn -0.937996 0.192161 -0.288510
# 30 normals

usemtl Default
f 5/1/5 29/2/29 30/3/30 6/4/6
f 19/5/19 7/6/7 8/7/8 20/8/20
f 20/9/20 8/10/8 10/11/10 23/12/23
f 2/13/2 29/14/29 5/15/5 3/16/3
f 3/17/3 5/18/5 6/19/6 4/20/4
f 4/21/4 6/22/6 30/23/30 1/24/1
f 1/25/1 2/26/2 3/27/3 4/28/4
f 7/29/7 19/30/19 22/31/22 9/32/9
f 9/33/9 22/34/22 23/35/23 10/36/10
f 7/6/7 9/37/9 10/38/10 8/7/8
f 14/39/14 12/40/12 11/41/11 13/42/13
f 16/43/16 18/44/18 17/45/17 15/46/15
f 18/47/18 16/48/16 21/49/21 19/30/19
f 17/50/17 18/51/18 19/5/19 20/8/20
f 15/52/15 17/53/17 20/9/20 24/54/24
f 21/49/21 22/31/22 19/30/19
f 20/9/20 23/12/23 24/54/24
f 21/49/21 25/55/25 26/56/26 22/31/22
f 22/57/22 26/58/26 27/59/27 23/60/23
f 23/12/23 27/61/27 28/62/28 24/54/24
f 25/55/25 29/63/29 26/56/26
f 27/61/27 30/64/30 28/62/28
f 25/55/25 12/65/12 14/66/14 29/63/29
f 29/67/29 14/68/14 13/69/13 30/70/30
f 30/64/30 13/71/13 11/72/11 28/62/28

# 25 faces
